<?xml version="1.0" encoding="UTF-8" standalone="no"?><!DOCTYPE svg PUBLIC "-//W3C//DTD SVG 1.1//EN" "http://www.w3.org/Graphics/SVG/1.1/DTD/svg11.dtd"><svg width="100%" height="100%" viewBox="0 0 650 500" version="1.1" xmlns="http://www.w3.org/2000/svg" xmlns:xlink="http://www.w3.org/1999/xlink" xml:space="preserve" xmlns:serif="http://www.serif.com/" style="fill-rule:evenodd;clip-rule:evenodd;stroke-linejoin:round;stroke-miterlimit:2;"><rect id="nome" x="0" y="0" width="650" height="500" style="fill:none;"/><g><path d="M108.112,195.091c-37.25,-1.71 -61.828,-1.779 -61.828,-1.779c0,0 9.678,-72.625 35.011,-82.706c37.246,-14.822 188.463,-6.225 188.463,-6.225c0,0 -19.444,77.401 -46.185,88.042c-9.302,3.702 -25.017,5.61 -43.361,6.39c-7.798,52.839 5.047,170.139 -3.196,187.037c-9.982,20.463 -85.473,15.602 -91.624,-7.559c-9.684,-36.462 27.189,-60.029 30.914,-150.739c0.588,-14.327 -4.692,-26.072 -8.194,-32.46Z" style="fill:#58a624;"/><path d="M193.777,359.672c-0.043,-18.678 5.093,-21.143 18.623,-42.299c13.53,-21.157 22.604,-81.238 46.185,-144.958c23.58,-63.721 42.334,-71.383 68.905,-70.512c26.57,0.871 32.594,12.402 37.991,65.621c5.397,53.218 26.444,135.176 26.444,135.176c0,0 3.896,23.979 -4.469,56.973c-8.365,32.994 -47.623,30.055 -54.006,26.178c-6.384,-3.877 -15.853,-6.078 -11.546,-26.178c4.306,-20.1 -0.745,-67.645 -0.745,-67.645c0,0 -44.46,9.527 -51.399,4.447c-6.939,-5.08 -18.871,50.589 -24.21,63.198c-5.339,12.61 -20.471,26.736 -32.776,26.178c-12.305,-0.559 -18.952,-7.5 -18.995,-26.178Zm94.977,-109.342c9.386,9.507 21.169,6.136 27.189,0c6.021,-6.136 21.279,-41.774 0.745,-62.353c-19.343,16.871 -37.32,52.846 -27.934,62.353Z" style="fill:#58a624;"/><path d="M384.496,139.054c1.768,-20.517 35.483,-31.747 78.187,-37.103c42.704,-5.356 91.721,20.662 110.596,42.842c18.874,22.18 38.351,67.688 27.143,138.223c-11.209,70.535 -83.267,112.39 -112.621,114.787c-29.354,2.398 -66.202,2.064 -76.971,-22.957c-10.77,-25.021 -6.506,-83.331 -10.128,-132.121c-3.622,-48.79 -18.606,-75.801 -16.204,-103.671Zm74.946,43.524c-16.204,13.392 -7.071,37.343 -1.215,61.22c5.855,23.876 4.941,62.377 24.307,69.351c19.366,6.973 67.552,-12.71 55.5,-85.382c-12.052,-72.673 -60.205,-60.383 -78.592,-45.188Z" style="fill:#58a624;"/></g></svg>